<svg height="512pt" viewBox="0 0 512 512.00069" width="512pt" xmlns="http://www.w3.org/2000/svg" xmlns:xlink="http://www.w3.org/1999/xlink"><linearGradient id="a"><stop offset="0" stop-color="#662d91"/><stop offset=".437" stop-color="#3873b3"/><stop offset="1" stop-color="#00c9dd"/></linearGradient><linearGradient id="b" gradientTransform="matrix(1.069952 0 0 -1.069952 -.002206 507.209871)" gradientUnits="userSpaceOnUse" x1="21.2836" x2="476.506" xlink:href="#a" y1="468.7297" y2="13.5073"/><linearGradient id="c" gradientTransform="matrix(1.069952 0 0 -1.069952 -.002206 507.209871)" gradientUnits="userSpaceOnUse" x1="-10.6256" x2="444.5968" xlink:href="#a" y1="436.8205" y2="-18.4019"/><linearGradient id="d" gradientTransform="matrix(1.069952 0 0 -1.069952 -.002206 507.209871)" gradientUnits="userSpaceOnUse" x1="81.0904" x2="536.3128" xlink:href="#a" y1="528.5365" y2="73.3141"/><linearGradient id="e" gradientTransform="matrix(1.069952 0 0 -1.069952 -.002206 507.209871)" gradientUnits="userSpaceOnUse" x1="134.9246" x2="590.147" xlink:href="#a" y1="582.3787" y2="127.1563"/><linearGradient id="f" gradientTransform="matrix(1.069952 0 0 -1.069952 -.002206 507.209871)" gradientUnits="userSpaceOnUse" x1="-84.3975" x2="370.8249" xlink:href="#a" y1="363.0487" y2="-92.1738"/><linearGradient id="g" gradientTransform="matrix(1.069952 0 0 -1.069952 -.002206 507.209871)" gradientUnits="userSpaceOnUse" x1="41.176" x2="496.3984" xlink:href="#a" y1="488.6221" y2="33.3997"/><linearGradient id="h" gradientTransform="matrix(1.069952 0 0 -1.069952 -.002206 507.209871)" gradientUnits="userSpaceOnUse" x1="-22.5886" x2="432.6338" xlink:href="#a" y1="424.8575" y2="-30.3649"/><linearGradient id="i" gradientTransform="matrix(1.069952 0 0 -1.069952 -.001996 507.210299)" gradientUnits="userSpaceOnUse" x1="-108.2319" x2="346.9825" xlink:href="#a" y1="339.2101" y2="-116.0123"/><linearGradient id="j" gradientTransform="matrix(1.069952 0 0 -1.069952 -.002783 507.210406)" gradientUnits="userSpaceOnUse" x1="-54.4928" x2="400.7296" xlink:href="#a" y1="392.9539" y2="-62.2686"/><linearGradient id="k" gradientTransform="matrix(1.069952 0 0 -1.069952 -.002224 507.209871)" gradientUnits="userSpaceOnUse" x1="13.3002" x2="468.5226" xlink:href="#a" y1="460.7465" y2="5.5241"/><linearGradient id="l" gradientTransform="matrix(1.069952 0 0 -1.069952 -.00216 507.210406)" gradientUnits="userSpaceOnUse" x1="47.1944" x2="502.4168" xlink:href="#a" y1="494.6367" y2="39.4144"/><linearGradient id="m" gradientTransform="matrix(1.069952 0 0 -1.069952 -.001675 507.210941)" gradientUnits="userSpaceOnUse" x1="73.1208" x2="528.3432" xlink:href="#a" y1="520.5565" y2="65.3341"/><linearGradient id="n" gradientTransform="matrix(1.069952 0 0 -1.069952 -.002206 507.209871)" gradientUnits="userSpaceOnUse" x1="27.2571" x2="482.4795" xlink:href="#a" y1="474.7032" y2="19.4808"/><linearGradient id="o" gradientTransform="matrix(1.069952 0 0 -1.069952 -.00266 507.210192)" gradientUnits="userSpaceOnUse" x1="116.9775" x2="572.2" xlink:href="#a" y1="564.4247" y2="109.2024"/><linearGradient id="p" gradientTransform="matrix(1.069952 0 0 -1.069952 -.001968 507.210834)" gradientUnits="userSpaceOnUse" x1="184.7732" x2="639.9956" xlink:href="#a" y1="632.2114" y2="176.989"/><linearGradient id="q" gradientTransform="matrix(1.069952 0 0 -1.069952 -.002206 507.209871)" gradientUnits="userSpaceOnUse" x1="-160.1626" x2="295.0598" xlink:href="#a" y1="287.2835" y2="-167.9389"/><linearGradient id="r" gradientTransform="matrix(1.069952 0 0 -1.069952 -.002047 507.20955)" gradientUnits="userSpaceOnUse" x1="168.8188" x2="624.0413" xlink:href="#a" y1="616.2657" y2="161.0434"/><linearGradient id="s" gradientTransform="matrix(1.069952 0 0 -1.069952 -.001689 507.209443)" gradientUnits="userSpaceOnUse" x1="136.9191" x2="592.1415" xlink:href="#a" y1="584.3648" y2="129.1424"/><linearGradient id="t" gradientTransform="matrix(1.069952 0 0 -1.069952 -.00262 507.208908)" gradientUnits="userSpaceOnUse" x1="-122.2847" x2="332.9377" xlink:href="#a" y1="325.1704" y2="-130.052"/><linearGradient id="u" gradientTransform="matrix(1.069952 0 0 -1.069952 -.002206 507.209871)" gradientUnits="userSpaceOnUse" x1="210.6891" x2="665.9115" xlink:href="#a" y1="658.1352" y2="202.9128"/><linearGradient id="v" gradientTransform="matrix(1.069952 0 0 -1.069952 -.002206 507.209871)" gradientUnits="userSpaceOnUse" x1="-54.4898" x2="400.7326" xlink:href="#a" y1="392.9563" y2="-62.2661"/><linearGradient id="w" gradientTransform="matrix(1.069952 0 0 -1.069952 -.002206 507.209871)" gradientUnits="userSpaceOnUse" x1="148.8804" x2="604.1029" xlink:href="#a" y1="596.3266" y2="141.1042"/><linearGradient id="x" gradientTransform="matrix(1.069952 0 0 -1.069952 -.002206 507.209871)" gradientUnits="userSpaceOnUse" x1="89.0657" x2="544.2881" xlink:href="#a" y1="536.5118" y2="81.2894"/><linearGradient id="y" gradientTransform="matrix(1.069952 0 0 -1.069952 -.002206 507.209871)" gradientUnits="userSpaceOnUse" x1="-102.3416" x2="352.8807" xlink:href="#a" y1="345.1045" y2="-110.1179"/><linearGradient id="z" gradientTransform="matrix(1.069952 0 0 -1.069952 -.002206 507.209871)" gradientUnits="userSpaceOnUse" x1="13.3003" x2="468.5227" xlink:href="#a" y1="460.7464" y2="5.524"/><path d="m486.394531 460.800781c-3.804687.015625-7.558593.890625-10.980469 2.5625l-.050781-.078125-66.617187-66.644531-76.203125-279.410156c-1.242188-4.546875-5.933594-7.226563-10.480469-5.984375-1.304688.355468-2.507812 1.019531-3.503906 1.929687l-92.621094 84.5625c-.835938.527344-1.570312 1.199219-2.167969 1.980469l-101.519531 92.652344c-3.480469 3.175781-3.730469 8.574218-.554688 12.058594.910157.996093 2.039063 1.761718 3.304688 2.238281l271.355469 101.75 66.949219 66.949219.078124.050781c-1.679687 3.417969-2.5625 7.175781-2.585937 10.984375 0 14.136718 11.460937 25.597656 25.597656 25.597656 14.140625 0 25.601563-11.460938 25.601563-25.597656 0-14.140625-11.460938-25.601563-25.601563-25.601563zm-166.6875-325.609375 4.753907 17.433594c-.085938.320312-.152344.652344-.195313.980469v209.550781l-34.226563-12.800781c0-.152344.09375-.289063.09375-.453125v-187.710938zm-80.773437 73.75 34.132812-31.171875v166.183594l-34.132812-12.796875zm-17.066406 115.8125-34.132813-12.796875v-55.953125c0-.09375-.050781-.171875-.050781-.265625l34.183594-31.214843zm-51.199219-53.484375v34.285157l-26.613281-9.980469zm170.664062 98.285157v-155.074219l47.113281 172.738281zm145.0625 125.378906c-4.710937 0-8.53125-3.820313-8.53125-8.53125 0-4.714844 3.820313-8.535156 8.53125-8.535156 4.714844 0 8.535157 3.820312 8.535157 8.535156 0 4.710937-3.820313 8.53125-8.535157 8.53125zm0 0" fill="url(#b)"/><path d="m.00390625 85.339844c0 18.851562 15.28124975 34.132812 34.13281275 34.132812 18.847656 0 34.132812-15.28125 34.132812-34.132812 0-18.851563-15.28125-34.132813-34.132812-34.132813-18.851563 0-34.13281275 15.28125-34.13281275 34.132813zm34.13281275-17.066406c9.425781 0 17.066406 7.640624 17.066406 17.066406 0 9.425781-7.640625 17.066406-17.066406 17.066406s-17.066407-7.640625-17.066407-17.066406c0-9.425782 7.640626-17.066406 17.066407-17.066406zm0 0" fill="url(#c)"/><path d="m196.265625 85.339844c0 18.851562 15.28125 34.132812 34.132813 34.132812 18.851562 0 34.132812-15.28125 34.132812-34.132812 0-18.851563-15.28125-34.132813-34.132812-34.132813-18.847657 0-34.132813 15.28125-34.132813 34.132813zm51.199219 0c0 9.425781-7.640625 17.066406-17.066406 17.066406-9.425782 0-17.066407-7.640625-17.066407-17.066406 0-9.425782 7.640625-17.066406 17.066407-17.066406 9.425781 0 17.066406 7.640624 17.066406 17.066406zm0 0" fill="url(#d)"/><path d="m315.730469 93.875c.628906-.003906 1.25-.070312 1.863281-.207031 4.601562-1.015625 7.503906-5.574219 6.484375-10.175781 0 0 0 0 0-.003907l-17.066406-76.796875c-1.023438-4.605468-5.585938-7.507812-10.191407-6.488281-4.605468 1.023437-7.507812 5.585937-6.484374 10.191406l17.066406 76.796875c.867187 3.902344 4.332031 6.679688 8.328125 6.683594zm0 0" fill="url(#e)"/><path d="m.363281 245.023438c-1.355469 4.511718 1.207031 9.269531 5.722657 10.621093l85.332031 25.601563c.792969.238281 1.621093.359375 2.449219.359375 4.714843 0 8.535156-3.820313 8.535156-8.53125 0-3.773438-2.472656-7.097657-6.085938-8.179688l-85.332031-25.597656c-4.511719-1.351563-9.269531 1.210937-10.621094 5.722656zm0 0" fill="url(#f)"/><path d="m80.378906 1.597656c-3.84375 2.726563-4.742187 8.054688-2.015625 11.898438l.035157.046875 85.332031 119.464843c2.589843 3.9375 7.882812 5.027344 11.820312 2.4375 3.9375-2.59375 5.027344-7.882812 2.4375-11.820312-.121093-.183594-.25-.359375-.382812-.535156l-85.332031-119.464844c-2.726563-3.84375-8.050782-4.753906-11.894532-2.027344zm0 0" fill="url(#g)"/><path d="m80.214844 177.5 68.265625 51.199219c3.769531 2.828125 9.121093 2.0625 11.945312-1.707031 2.828125-3.773438 2.066407-9.121094-1.707031-11.945313l-68.265625-51.203125c-3.769531-2.824219-9.117187-2.0625-11.945313 1.707031-2.828124 3.773438-2.0625 9.121094 1.707032 11.949219zm0 0" fill="url(#h)"/><path d="m35.367188 314.90625 12.492187-20.65625 14.605469 8.832031-12.496094 20.65625zm0 0" fill="url(#i)"/><path d="m17.503906 164.84375 16.183594-5.398438 8.539062 25.59375-16.179687 5.398438zm0 0" fill="url(#j)"/><path d="m87.835938 99.910156 12.066406-12.070312 17.066406 17.066406-12.070312 12.066406zm0 0" fill="url(#k)"/><path d="m209.515625 145.976562 17.066406-8.53125 7.628907 15.261719-17.0625 8.535157zm0 0" fill="url(#l)"/><path d="m130.507812 14.578125 12.066407-12.066406 17.0625 17.066406-12.066407 12.066406zm0 0" fill="url(#m)"/><path d="m25.601562.0078125h25.601563v17.0664065h-25.601563zm0 0" fill="url(#n)"/><path d="m232.898438 28.109375 17.066406-17.066406 12.066406 12.070312-17.066406 17.0625zm0 0" fill="url(#o)"/><path d="m403.566406 53.710938 17.0625-17.066407 12.070313 12.070313-17.066407 17.0625zm0 0" fill="url(#p)"/><path d="m.00390625 366.933594h17.06640575v25.601562h-17.06640575zm0 0" fill="url(#q)"/><path d="m335.300781 14.574219 12.066407-12.066407 17.0625 17.0625-12.066407 12.070313zm0 0" fill="url(#r)"/><path d="m386.5 134.039062 12.066406-12.066406 17.066406 17.0625-12.070312 12.066406zm0 0" fill="url(#s)"/><path d="m87.832031 395.03125 17.066407-17.066406 12.066406 12.070312-17.066406 17.0625zm0 0" fill="url(#t)"/><path d="m477.863281 51.207031h17.066407v25.601563h-17.066407zm0 0" fill="url(#u)"/><path d="m68.269531 226.136719c0 7.070312 5.730469 12.800781 12.800781 12.800781 7.066407 0 12.796876-5.730469 12.796876-12.800781 0-7.066407-5.730469-12.796875-12.796876-12.796875-7.070312 0-12.800781 5.730468-12.800781 12.796875zm12.800781-4.265625c2.355469 0 4.265626 1.910156 4.265626 4.265625 0 2.359375-1.910157 4.269531-4.265626 4.269531-2.359374 0-4.269531-1.910156-4.269531-4.269531 0-2.355469 1.914063-4.265625 4.269531-4.265625zm0 0" fill="url(#v)"/><path d="m371.199219 93.875c7.066406 0 12.796875-5.730469 12.796875-12.800781 0-7.070313-5.730469-12.800781-12.796875-12.800781-7.070313 0-12.800781 5.730468-12.800781 12.800781 0 7.070312 5.730468 12.800781 12.800781 12.800781zm0-17.066406c2.355469 0 4.265625 1.910156 4.265625 4.265625s-1.910156 4.265625-4.265625 4.265625c-2.359375 0-4.269531-1.910156-4.269531-4.265625s1.910156-4.265625 4.269531-4.265625zm0 0" fill="url(#w)"/><path d="m192 17.074219c-7.070312 0-12.800781 5.730469-12.800781 12.800781s5.730469 12.800781 12.800781 12.800781 12.800781-5.730469 12.800781-12.800781-5.730469-12.800781-12.800781-12.800781zm0 17.066406c-2.355469 0-4.265625-1.910156-4.265625-4.265625 0-2.359375 1.910156-4.269531 4.265625-4.269531 2.359375 0 4.269531 1.910156 4.269531 4.269531 0 2.355469-1.914062 4.265625-4.269531 4.265625zm0 0" fill="url(#x)"/><path d="m85.335938 345.601562c0 7.070313 5.730468 12.800782 12.800781 12.800782 7.066406 0 12.796875-5.730469 12.796875-12.800782 0-7.066406-5.730469-12.796874-12.796875-12.796874-7.070313 0-12.800781 5.730468-12.800781 12.796874zm17.066406 0c0 2.355469-1.910156 4.269532-4.265625 4.269532-2.359375 0-4.269531-1.910156-4.269531-4.269532 0-2.355468 1.910156-4.265624 4.269531-4.265624 2.355469 0 4.265625 1.910156 4.265625 4.265624zm0 0" fill="url(#y)"/><path d="m170.667969 183.472656c0 7.066406 5.730469 12.800782 12.800781 12.800782 7.066406 0 12.800781-5.734376 12.800781-12.800782 0-7.070312-5.734375-12.800781-12.800781-12.800781-7.070312 0-12.800781 5.730469-12.800781 12.800781zm12.800781-4.265625c2.355469 0 4.265625 1.910157 4.265625 4.265625 0 2.355469-1.910156 4.265625-4.265625 4.265625-2.359375 0-4.269531-1.910156-4.269531-4.265625 0-2.355468 1.910156-4.265625 4.269531-4.265625zm0 0" fill="url(#z)"/></svg>